<?xml version="1.0" standalone="no"?><!DOCTYPE svg PUBLIC "-//W3C//DTD SVG 1.1//EN" "http://www.w3.org/Graphics/SVG/1.1/DTD/svg11.dtd"><svg t="1584748334551" class="icon" viewBox="0 0 1024 1024" version="1.1" xmlns="http://www.w3.org/2000/svg" p-id="2076" xmlns:xlink="http://www.w3.org/1999/xlink" width="200" height="200"><defs><style type="text/css"></style></defs><path d="M517.724375 711.155852c18.744923 0 30.714536-16.827247 42.339294-29.704532l0 0c0 0 111.74913-134.855384 141.15895-169.390945 33.43039-39.260166 25.329898-91.382267-40.152489-18.925025l0 0L531.830651 653.218302 531.830651 116.813472l-42.34748 0 0 536.40483-127.043465-155.273413-2.194992-4.803399c-41.785685-46.285163-93.744058-40.85857-40.152489 18.919908l150.413731 178.128957 0-0.00614C482.128669 703.060477 498.978429 711.155852 517.724375 711.155852L517.724375 711.155852 517.724375 711.155852zM912.958998 513.166569l0.00307 337.675696L108.354823 850.842265l0.001023-337.675696c0-72.084759-42.349527-72.084759-42.349527 0l0 316.685639c0 34.988886 28.437679 63.33856 63.521732 63.33856l762.258741 0c35.08917 0 63.522756-28.348652 63.522756-63.33856L955.309548 513.166569C955.309548 429.563476 912.958998 429.563476 912.958998 513.166569L912.958998 513.166569 912.958998 513.166569zM912.958998 513.166569" p-id="2077" fill="#1296db"></path></svg>